<svg width="46" height="30" viewBox="0 0 63 41" fill="none" xmlns="http://www.w3.org/2000/svg">
<path d="M8.92432 2.88243C8.76117 3.35238 8.75337 3.84183 8.72477 4.31633C8.60452 6.31378 8.80017 8.27028 9.54507 10.1514C10.3992 12.3074 11.809 14.0163 13.6732 15.3702C15.581 16.756 17.737 17.5854 19.973 18.2673C22.1837 18.9413 24.2156 19.9599 25.8906 21.6037C27.5683 23.2502 28.5069 25.2652 28.8923 27.559C29.0444 28.4645 29.1055 29.3784 29.1075 30.2968C29.1075 30.4067 29.1094 30.5185 29.0919 30.6257C29.0327 30.9858 28.7591 31.2159 28.4373 31.1873C28.1247 31.1594 27.9102 30.9202 27.9089 30.5497C27.9069 29.7788 27.8621 29.0118 27.7743 28.2461C27.3752 24.7666 25.5767 22.2518 22.5171 20.6034C21.2828 19.9384 19.9607 19.5062 18.6288 19.0869C15.7929 18.1951 13.1961 16.8776 11.1018 14.7053C9.19862 12.7306 8.07022 10.3704 7.66787 7.66903C7.32792 5.39013 7.48327 3.13463 8.11702 0.915533C8.13067 0.868733 8.14757 0.822583 8.15992 0.775133C8.24052 0.454683 8.43682 0.244734 8.77157 0.241484C9.07967 0.238234 9.25322 0.452084 9.34877 0.725084C9.61332 1.47713 9.96237 2.19083 10.3309 2.89543C10.4954 3.20938 10.6709 3.51748 10.8431 3.82753C11.2377 4.53993 11.9319 4.82333 12.6488 5.05083C13.9625 5.46748 15.3249 5.60983 16.6912 5.71643C18.777 5.88023 20.8681 5.84643 22.9578 5.87893C24.5776 5.90363 26.033 6.52243 27.4142 7.31738C28.659 8.03433 29.7939 8.90208 30.8339 9.89398C30.9489 10.0038 31.0828 10.0942 31.1888 10.2112C31.3532 10.3932 31.4754 10.3568 31.6412 10.1982C32.7039 9.18158 33.8388 8.25663 35.0985 7.48963C36.8139 6.44508 38.6326 5.79508 40.6814 5.86138C42.5508 5.92183 44.4221 5.85683 46.287 5.70798C47.676 5.59683 49.0592 5.43173 50.3911 4.97673C51.1919 4.70373 51.7918 4.24223 52.1831 3.46353C52.6446 2.54573 53.1367 1.64418 53.4708 0.669184C53.565 0.394234 53.7581 0.236934 54.0441 0.239534C54.3535 0.242134 54.5296 0.446234 54.6232 0.721184C54.9274 1.61688 55.0964 2.54443 55.203 3.47978C55.4428 5.57993 55.3161 7.65473 54.6797 9.68208C53.6398 12.9951 51.5103 15.4222 48.5581 17.1714C46.9487 18.1249 45.2177 18.7879 43.4309 19.3248C41.5537 19.889 39.7915 20.6859 38.2783 21.9677C36.4044 23.555 35.4008 25.6045 35.0608 28.0069C34.9497 28.794 34.8938 29.5864 34.912 30.3826C34.9139 30.4678 34.9152 30.5549 34.9048 30.6394C34.8652 30.9644 34.6279 31.188 34.3237 31.1925C34 31.1977 33.7316 30.9728 33.7231 30.6251C33.6471 27.4472 34.2938 24.4995 36.4882 22.0529C37.9546 20.4175 39.8039 19.3755 41.8306 18.6105C43.2027 18.0924 44.6366 17.7557 45.9815 17.1545C48.5678 15.9981 50.8136 14.4264 52.3424 11.9792C53.3453 10.3743 53.8848 8.61413 54.0571 6.72978C54.1637 5.56563 54.1168 4.41123 53.9719 3.25683C53.9569 3.13723 53.9687 3.01048 53.8478 2.87203C53.6651 3.19963 53.4649 3.50058 53.3219 3.82688C52.757 5.11778 51.7275 5.82498 50.421 6.21173C49.041 6.62058 47.6227 6.78958 46.1953 6.90073C44.1095 7.06323 42.0184 7.03268 39.9287 7.06128C38.433 7.08208 37.0986 7.67098 35.8356 8.42823C34.4108 9.28233 33.1453 10.3353 31.9922 11.5274C31.5385 11.9961 31.2843 11.998 30.8293 11.5333C29.452 10.1273 27.9394 8.89753 26.1812 7.99208C25.0586 7.41423 23.8795 7.04113 22.5997 7.04958C20.9123 7.06128 19.2249 7.06973 17.5401 6.96573C15.8319 6.85978 14.1269 6.71873 12.4714 6.23318C11.2013 5.86073 10.1359 5.23933 9.56782 3.96728C9.44367 3.68908 9.28312 3.42648 9.13427 3.15998C9.08357 3.06703 9.06862 2.94613 8.92432 2.88243Z" fill="#1C1D28"/>
<path d="M40.4528 32.0939C40.4535 30.3084 40.4522 28.5235 40.4541 26.7379C40.4548 26.1328 40.6374 25.9553 41.2465 25.9573C44.644 25.9677 47.7491 28.6658 48.2658 32.0582C48.8866 36.1324 46.3054 39.7509 42.2455 40.4978C38.2188 41.2381 34.179 38.2085 33.7734 34.1427C33.7507 33.912 33.7182 33.6812 33.7162 33.4498C33.7123 32.9753 33.9476 32.6763 34.3077 32.6718C34.6815 32.6666 34.9005 32.9402 34.9135 33.4284C34.9863 36.1317 36.8785 38.514 39.4882 39.1867C43.0743 40.1117 46.6363 37.7112 47.1231 34.04C47.5489 30.829 45.2297 27.7103 42.0785 27.2241C41.6917 27.1643 41.6521 27.2956 41.6527 27.6135C41.6605 30.8173 41.6579 34.0212 41.6586 37.2244C41.6586 37.3589 41.6644 37.4941 41.6534 37.628C41.6196 38.0304 41.3862 38.2598 41.0281 38.2514C40.6595 38.2429 40.4561 38.0232 40.4548 37.5955C40.4502 35.7625 40.4522 33.9282 40.4528 32.0939Z" fill="#1C1D28"/>
<path d="M15.0283 36.2658C14.7832 36.6799 14.5759 37.1056 14.299 37.4917C12.505 39.9968 9.43177 41.1278 6.46907 40.3647C3.54472 39.6114 1.38347 37.1082 1.03962 34.074C1.01232 33.8316 0.983723 33.5872 0.988273 33.3441C0.996073 32.9534 1.24957 32.6778 1.57457 32.6713C1.92947 32.6642 2.16022 32.9242 2.18297 33.3493C2.30647 35.7062 3.36922 37.4943 5.43167 38.6617C8.95272 40.6539 13.6633 38.3972 14.3328 34.4062C14.3874 34.0792 14.4095 33.7516 14.4257 33.4221C14.4491 32.9482 14.6604 32.6915 15.0192 32.6772C15.3806 32.6629 15.6178 32.8871 15.6432 33.3818C15.69 34.2853 15.8668 35.1491 16.2704 35.9623C17.5132 38.4667 20.0911 39.5977 22.3843 39.3605C25.1189 39.0777 27.3568 37.0029 27.8151 34.23C27.8625 33.9414 27.884 33.6476 27.9022 33.3551C27.9288 32.9261 28.1485 32.6687 28.5047 32.6707C28.8421 32.6726 29.1131 32.9658 29.1014 33.3727C29.0787 34.1579 28.9526 34.9281 28.69 35.6724C27.5824 38.8073 24.5716 40.8366 21.2592 40.5753C18.5779 40.3634 16.5759 39.0179 15.272 36.6539C15.2025 36.5291 15.1713 36.3789 15.0283 36.2658Z" fill="#1C1D28"/>
<path d="M54.3216 40.6C52.2929 40.5279 50.2981 39.5704 48.8122 37.6035C48.6757 37.4228 48.5704 37.235 48.6062 36.9977C48.6426 36.7585 48.7726 36.5973 49.0059 36.5219C49.2913 36.4296 49.5155 36.5343 49.6819 36.7572C50.0336 37.2298 50.4125 37.675 50.8838 38.0338C52.7421 39.4489 54.7902 39.8161 56.9599 38.9471C59.2096 38.0462 60.4849 36.3237 60.7988 33.9089C60.8255 33.7035 60.8411 33.4962 60.8567 33.2895C60.8846 32.9177 61.116 32.6739 61.4488 32.6707C61.7615 32.6674 62.0364 32.9281 62.0488 33.2921C62.0644 33.7685 61.9974 34.243 61.9058 34.7104C61.235 38.1079 58.2073 40.5935 54.3216 40.6Z" fill="#1C1D28"/>
</svg>
