<svg width="14" height="14" viewBox="0 0 14 14" fill="none" xmlns="http://www.w3.org/2000/svg">
<g clip-path="url(#clip0)">
<path d="M5.70577 6.51911C5.99358 6.37434 6.21116 6.2131 6.36026 6.03886C6.62553 5.72505 6.75643 5.30895 6.75643 4.79316C6.75643 4.29124 6.62553 3.86213 6.36373 3.50238C5.92683 2.91637 5.18738 2.61643 4.14193 2.60083H0V11.0555H3.86193C4.2971 11.0555 4.7002 11.0182 5.07295 10.9419C5.44571 10.8648 5.76819 10.7235 6.04125 10.5171C6.28398 10.3377 6.48683 10.1149 6.64807 9.85224C6.90293 9.45521 7.03036 9.0053 7.03036 8.50425C7.03036 8.0188 6.91853 7.6053 6.69661 7.26549C6.47209 6.92567 6.14268 6.67688 5.70577 6.51911ZM1.70861 4.06932H3.57413C3.98416 4.06932 4.32224 4.11353 4.5875 4.20108C4.89438 4.32851 5.04782 4.58771 5.04782 4.983C5.04782 5.33756 4.93079 5.58548 4.69933 5.72505C4.46614 5.86462 4.1636 5.93483 3.79258 5.93483H1.70861V4.06932ZM4.65859 9.43961C4.45227 9.5393 4.16187 9.58871 3.78998 9.58871H1.70861V7.33397H3.81859C4.18614 7.33657 4.47221 7.38511 4.67679 7.47614C5.04088 7.64084 5.22206 7.94252 5.22206 8.38375C5.22206 8.90388 5.03481 9.2541 4.65859 9.43961Z" fill="white"/>
<path d="M12.5359 2.99512H8.86292V4.0475H12.5359V2.99512Z" fill="white"/>
<path d="M13.8119 7.14866C13.7356 6.65888 13.5674 6.22804 13.3056 5.85615C13.0187 5.43485 12.6546 5.12624 12.2116 4.93119C11.7704 4.73528 11.2737 4.63732 10.7206 4.63819C9.7922 4.63819 9.03801 4.92859 8.45461 5.50506C7.87293 6.08327 7.58167 6.9146 7.58167 7.9982C7.58167 9.15374 7.90328 9.98854 8.54996 10.5009C9.19405 11.0141 9.93783 11.2698 10.7822 11.2698C11.8042 11.2698 12.5991 10.9655 13.1669 10.3587C13.5302 9.97554 13.7356 9.59845 13.7807 9.22829H12.0885C11.9906 9.4112 11.877 9.55424 11.747 9.65826C11.5112 9.84897 11.2043 9.94433 10.8281 9.94433C10.4701 9.94433 10.1667 9.86545 9.91356 9.70854C9.49572 9.45715 9.27727 9.01677 9.24953 8.39002H13.8674C13.8743 7.84996 13.857 7.43473 13.8119 7.14866ZM9.29114 7.31076C9.35182 6.9042 9.49919 6.58172 9.73325 6.34333C9.9673 6.10581 10.2985 5.98618 10.7224 5.98531C11.1133 5.98531 11.4401 6.09714 11.7063 6.32166C11.9689 6.54791 12.1172 6.87646 12.1475 7.31076H9.29114Z" fill="white"/>
</g>
<defs>
<clipPath id="clip0">
<rect width="13.8689" height="13.8689" fill="white" transform="translate(0 0.000244141)"/>
</clipPath>
</defs>
</svg>
